<svg xmlns="http://www.w3.org/2000/svg" viewBox="0 0 512 512" width="100%" height="100%">
  <defs>
    <linearGradient id="sqDarkCyanGrad" x1="0%" y1="0%" x2="100%" y2="100%">
      <stop offset="0%" stop-color="#0E7C8A" />
      <stop offset="100%" stop-color="#0B4F58" />
    </linearGradient>
  </defs>
  <!-- Squircle Background -->
  <rect width="512" height="512" rx="112" fill="#060A0D" />
  <rect width="512" height="512" rx="112" fill="none" stroke="#1C323B" stroke-width="2" opacity="0.6" />

  <!-- Segmented Q Ring (Off-white / Ivory) -->
  <g fill="#F4F2EB">
    <path d="M 261.65 94.10 A 162.0 162.0 0 0 1 393.38 341.85 L 357.77 319.59 A 120.0 120.0 0 0 0 260.19 136.07 Z" />
    <path d="M 341.85 393.38 A 162.0 162.0 0 0 1 94.10 261.65 L 136.07 260.19 A 120.0 120.0 0 0 0 319.59 357.77 Z" />
    <path d="M 94.10 250.35 A 162.0 162.0 0 0 1 250.35 94.10 L 251.81 136.07 A 120.0 120.0 0 0 0 136.07 251.81 Z" />
  </g>

  <!-- Dark Cyan Probe (Tail of Q) -->
  <g fill="url(#sqDarkCyanGrad)">
    <polygon points="230.54,241.86 241.86,230.54 400.25,388.94 388.94,400.25" />
    <circle cx="394.59" cy="394.59" r="23.0" />
  </g>
</svg>